<?xml version="1.0" encoding="utf-8"?>
<!-- Generator: Adobe Illustrator 18.1.0, SVG Export Plug-In . SVG Version: 6.00 Build 0)  -->
<!DOCTYPE svg PUBLIC "-//W3C//DTD SVG 1.1//EN" "http://www.w3.org/Graphics/SVG/1.1/DTD/svg11.dtd">
<svg version="1.1" xmlns="http://www.w3.org/2000/svg" xmlns:xlink="http://www.w3.org/1999/xlink" x="0px" y="0px"
	 viewBox="0 0 25 25" enable-background="new 0 0 25 25" xml:space="preserve">
<g id="Layer_1" display="none">
</g>
<g id="Icons">
	<g id="Twitter">
		<defs>
			<rect id="SVGID_268_" x="0" y="0" width="25" height="25"/>
		</defs>
		<clipPath id="SVGID_1_">
			<use xlink:href="#SVGID_268_"  overflow="visible"/>
		</clipPath>
		<path clip-path="url(#SVGID_1_)" fill="#6E7281" d="M20.852,7.319c-0.459,0.688-1.039,1.292-1.71,1.773
			c0.007,0.147,0.009,0.295,0.009,0.443c0,4.529-3.445,9.752-9.748,9.752c-1.936,0-3.736-0.566-5.254-1.539
			c0.268,0.029,0.541,0.047,0.818,0.047c1.603,0,3.084-0.547,4.256-1.467c-1.501-0.027-2.766-1.019-3.201-2.379
			c0.208,0.039,0.424,0.061,0.645,0.061c0.312,0,0.613-0.041,0.902-0.121c-1.566-0.314-2.75-1.701-2.75-3.361v-0.041
			c0.465,0.256,0.992,0.41,1.555,0.428c-0.92-0.613-1.525-1.664-1.525-2.851c0-0.629,0.17-1.219,0.463-1.727
			c1.691,2.076,4.217,3.438,7.064,3.582c-0.06-0.25-0.088-0.51-0.088-0.781c0-1.891,1.533-3.426,3.426-3.426
			c0.986,0,1.877,0.416,2.5,1.081c0.779-0.153,1.514-0.437,2.177-0.829c-0.257,0.799-0.798,1.471-1.507,1.896
			C19.575,7.776,20.237,7.593,20.852,7.319"/>
	</g>
</g>
</svg>
